<?xml version="1.0" encoding="utf-8"?>
<svg fill="red" id="svg" width="400" height="400" viewBox="-0.628 77.289 400.961 245.477" xmlns="http://www.w3.org/2000/svg">
  <g id="svgg">
    <path id="path0" d="M140.559 79.360 C 122.929 81.418,100.320 88.152,84.667 96.009 C 78.796 98.955,77.859 99.884,75.307 105.279 L 73.390 109.333 68.663 109.333 C 61.233 109.333,63.047 105.934,39.847 163.307 C 1.161 258.975,-2.550 269.509,1.493 272.158 C 7.269 275.943,20.061 277.194,81.667 279.996 C 143.122 282.792,147.792 283.434,159.333 290.667 C 167.745 295.939,168.813 296.232,177.860 295.751 C 202.541 294.442,205.347 294.455,215.556 295.937 C 233.252 298.506,301.437 311.888,330.279 318.453 C 348.027 322.493,347.146 322.376,348.766 320.913 C 354.078 316.115,367.018 277.565,387.671 205.002 C 402.235 153.835,401.824 157.204,394.667 147.667 C 391.525 143.481,389.333 139.916,389.333 138.992 C 389.333 135.954,373.607 120.321,364.444 114.250 C 335.905 95.340,293.390 90.840,245.211 101.630 L 235.100 103.894 227.507 98.880 C 202.860 82.605,172.041 75.686,140.559 79.360 M175.333 88.053 C 196.144 90.447,213.990 97.421,225.889 107.811 L 228.779 110.333 219.673 139.667 C 203.575 191.528,190.666 232.810,188.261 240.125 L 185.918 247.249 179.386 242.969 C 139.253 216.674,92.224 211.550,44.358 228.256 C 39.606 229.915,35.642 231.198,35.550 231.106 C 35.459 231.014,38.051 224.203,41.311 215.970 C 44.571 207.736,55.362 180.000,65.292 154.333 C 75.222 128.667,83.613 107.044,83.939 106.282 C 84.344 105.337,87.526 103.590,93.969 100.774 C 120.284 89.272,148.113 84.921,175.333 88.053 M135.000 94.412 C 130.816 95.012,129.995 95.409,129.017 97.300 C 127.055 101.095,128.509 101.557,146.000 102.701 C 173.726 104.515,190.985 110.080,203.471 121.232 C 208.706 125.908,210.119 126.512,212.366 125.040 C 221.104 119.314,194.594 101.939,170.130 97.358 C 158.268 95.136,140.396 93.638,135.000 94.412 M319.333 105.951 C 344.665 110.716,363.587 120.481,377.522 135.980 L 380.553 139.351 370.992 177.176 C 358.373 227.099,344.717 280.046,344.275 280.761 C 343.630 281.805,342.757 281.372,335.517 276.419 C 315.668 262.839,279.334 243.590,263.807 238.426 C 243.803 231.775,220.443 233.386,198.500 242.931 C 197.125 243.529,196.000 243.887,196.000 243.727 C 196.000 243.567,199.420 232.538,203.600 219.218 C 214.962 183.014,236.000 114.317,236.000 113.422 C 236.000 111.450,253.852 107.170,271.300 104.958 C 282.415 103.549,309.546 104.110,319.333 105.951 M122.000 111.384 C 98.557 112.739,83.865 117.431,86.667 122.667 C 87.659 124.522,90.725 124.416,105.476 122.019 C 149.908 114.799,175.601 119.225,197.295 137.833 C 205.461 144.838,210.768 143.928,206.681 136.224 C 199.937 123.510,175.099 113.006,147.808 111.326 C 136.562 110.633,134.930 110.637,122.000 111.384 M280.000 113.088 C 255.764 115.338,243.276 119.577,245.982 124.634 C 247.173 126.859,249.449 126.877,258.096 124.731 C 297.810 114.872,332.492 122.315,349.736 144.397 C 355.374 151.618,359.339 152.813,359.874 147.453 C 360.866 137.511,335.021 118.386,315.000 114.246 C 310.403 113.295,286.340 112.499,280.000 113.088 M70.667 117.602 C 70.667 117.749,59.828 145.574,46.580 179.435 C 33.333 213.296,21.933 243.080,21.247 245.622 C 18.905 254.300,19.855 261.944,22.954 259.371 C 26.143 256.725,92.338 255.949,114.205 258.302 C 142.441 261.340,162.754 266.863,176.141 275.141 C 183.369 279.610,183.025 279.562,191.711 277.322 C 231.553 267.049,290.122 275.529,327.667 297.007 C 337.816 302.813,338.726 302.774,345.281 296.253 L 350.562 291.000 358.998 258.000 C 372.720 204.320,384.171 160.266,386.431 152.465 C 386.894 150.867,388.303 152.008,390.018 155.369 C 392.090 159.431,383.389 192.503,362.400 260.333 C 350.451 298.952,345.921 311.724,343.950 312.349 C 342.430 312.832,343.880 313.094,322.000 308.378 C 284.458 300.287,230.084 289.737,215.477 287.710 C 205.882 286.379,193.940 286.383,181.683 287.721 L 172.027 288.775 165.291 284.706 C 149.628 275.244,148.510 275.080,76.333 271.667 C 28.833 269.421,13.000 268.215,9.918 266.608 C 7.882 265.546,63.355 124.167,68.162 118.167 C 68.775 117.402,70.667 116.975,70.667 117.602 M117.000 132.790 C 94.347 133.673,78.730 137.673,78.133 142.745 C 77.730 146.171,79.218 146.449,88.908 144.759 C 108.671 141.313,114.153 140.611,124.333 140.228 C 153.068 139.147,173.764 145.343,189.640 159.780 C 194.336 164.050,196.068 164.724,198.710 163.310 C 201.879 161.614,198.971 155.765,192.505 150.826 C 172.820 135.791,154.192 131.341,117.000 132.790 M262.000 137.083 C 242.052 139.780,231.771 144.532,237.609 148.357 C 239.811 149.800,243.414 149.448,253.333 146.824 C 288.087 137.630,324.755 146.722,341.718 168.738 C 344.873 172.833,348.028 174.693,349.602 173.387 C 357.301 166.998,332.815 144.734,311.667 138.896 C 301.173 135.998,276.648 135.103,262.000 137.083 M102.000 154.405 C 80.199 156.819,70.000 160.003,70.000 164.396 C 70.000 167.614,71.895 167.688,87.418 165.074 C 131.886 157.586,161.301 162.229,180.000 179.686 C 186.353 185.617,188.680 186.563,190.897 184.114 C 196.757 177.638,169.662 159.658,148.000 155.649 C 141.964 154.531,108.927 153.638,102.000 154.405 M260.333 159.447 C 239.972 160.579,226.840 165.286,228.259 170.942 C 228.822 173.184,229.613 173.166,242.213 170.629 C 285.973 161.816,312.063 167.732,331.944 190.975 C 337.676 197.676,338.967 198.367,341.333 196.000 C 344.078 193.256,341.877 188.315,334.812 181.362 C 316.536 163.373,296.380 157.442,260.333 159.447 M91.000 176.044 C 72.582 177.901,61.476 181.753,62.115 186.062 C 62.520 188.791,64.068 189.072,71.484 187.762 C 75.251 187.097,81.532 185.988,85.440 185.298 C 113.489 180.350,140.617 182.883,159.000 192.165 C 163.479 194.427,167.965 197.577,174.894 203.327 C 182.803 209.889,187.333 204.886,180.296 197.362 C 164.153 180.105,130.470 172.063,91.000 176.044 M245.211 183.079 C 226.697 185.759,214.804 190.708,218.351 194.256 C 219.890 195.794,224.655 195.627,233.511 193.724 C 275.123 184.783,298.196 189.782,321.780 212.850 C 330.792 221.665,332.191 222.274,332.536 217.539 C 333.280 207.333,314.032 191.495,293.874 185.725 C 281.017 182.045,260.180 180.912,245.211 183.079 M83.333 197.374 C 64.066 199.430,52.202 204.062,54.622 208.583 C 55.564 210.342,56.830 210.348,66.333 208.639 C 87.025 204.916,91.383 204.445,105.333 204.422 C 132.743 204.378,150.005 209.922,165.375 223.704 C 175.318 232.620,180.551 226.497,170.886 217.256 C 153.793 200.912,120.669 193.390,83.333 197.374 M243.333 205.089 C 242.417 205.221,238.967 205.666,235.667 206.077 C 221.531 207.838,209.333 212.276,209.333 215.659 C 209.333 218.949,214.401 219.579,222.598 217.308 C 259.016 207.216,294.964 214.704,313.257 236.192 C 322.431 246.969,328.765 244.885,321.434 233.502 C 309.433 214.868,271.407 201.034,243.333 205.089 M119.667 228.292 C 138.656 231.776,155.849 238.215,171.333 247.642 C 183.364 254.966,183.469 255.117,181.896 262.950 C 180.899 267.913,180.577 267.971,173.570 264.452 C 149.767 252.498,93.439 246.018,41.892 249.306 C 27.646 250.214,28.396 250.336,29.425 247.275 C 31.699 240.505,54.396 231.273,76.667 228.059 C 79.417 227.662,82.417 227.210,83.333 227.054 C 87.514 226.342,113.949 227.243,119.667 228.292 M252.443 243.711 C 272.397 247.832,342.601 285.998,340.465 291.563 C 339.804 293.288,337.527 292.542,326.667 287.044 C 287.371 267.149,242.795 260.657,197.500 268.232 C 192.642 269.044,188.667 269.643,188.667 269.563 C 188.667 269.256,190.769 260.220,191.398 257.822 C 193.795 248.690,232.847 239.663,252.443 243.711 " stroke="none"/>
  </g>
</svg>